<?xml version="1.0" encoding="UTF-8" standalone="no"?>
<!-- Created with Inkscape (http://www.inkscape.org/) -->

<svg
   width="40.020039mm"
   height="36.714966mm"
   viewBox="0 0 40.020038 36.714966"
   version="1.1"
   id="svg5"
   sodipodi:docname="clam-blitz.svg"
   inkscape:version="1.1.2 (0a00cf5339, 2022-02-04, custom)"
   xmlns:inkscape="http://www.inkscape.org/namespaces/inkscape"
   xmlns:sodipodi="http://sodipodi.sourceforge.net/DTD/sodipodi-0.dtd"
   xmlns="http://www.w3.org/2000/svg"
   xmlns:svg="http://www.w3.org/2000/svg">
  <sodipodi:namedview
     id="namedview7"
     pagecolor="#000000"
     bordercolor="#666666"
     borderopacity="1.0"
     inkscape:pageshadow="2"
     inkscape:pageopacity="0"
     inkscape:pagecheckerboard="0"
     inkscape:document-units="mm"
     showgrid="false"
     fit-margin-top="3"
     fit-margin-left="0"
     fit-margin-right="0"
     fit-margin-bottom="3"
     inkscape:zoom="2"
     inkscape:cx="-202.75"
     inkscape:cy="150"
     inkscape:window-width="2560"
     inkscape:window-height="1369"
     inkscape:window-x="-8"
     inkscape:window-y="-8"
     inkscape:window-maximized="1"
     inkscape:current-layer="layer1" />
  <defs
     id="defs2" />
  <g
     inkscape:label="Layer 1"
     id="layer1"
     transform="translate(150.79745,-102.97521)"
     inkscape:groupmode="layer">
    <path
       style="display:inline;opacity:1;fill:none;fill-opacity:1;stroke:#cef7e7;stroke-width:0.465;stroke-linecap:butt;stroke-linejoin:miter;stroke-miterlimit:4;stroke-dasharray:none;stroke-opacity:1"
       d="m -131.07355,106.22105 c 5.27387,-0.24155 9.88821,2.85162 13.93677,5.86675 3.85881,2.38496 6.52414,6.86946 6.07798,11.47582 -0.20404,6.22873 -5.53515,11.65866 -11.68242,12.29736 -4.75692,0.77295 -9.61372,0.68004 -14.40533,0.36238 -4.91166,-0.61887 -10.08276,-3.06259 -12.24912,-7.76137 -2.46116,-5.35602 -0.96771,-12.40454 3.90978,-15.89278 3.62954,-3.06246 7.9766,-5.509 12.71921,-6.21438 0.56402,-0.0491 1.12907,-0.0852 1.69313,-0.13378 z"
       id="path17525-2" />
    <path
       id="path17525"
       style="opacity:1;fill:#cef7e7;fill-opacity:1;stroke:none;stroke-width:0.999999px;stroke-linecap:butt;stroke-linejoin:miter;stroke-opacity:1"
       d="M 89.078125,9.8105469 C 94.992059,13.471811 100.87792,17.177027 106.6543,21.054688 125.07994,32.630386 141.04416,47.410877 157.51367,61.521484 154.76205,48.004711 144.00207,37.009826 132.55859,29.767578 119.67367,20.497376 105.21746,11.037596 89.078125,9.8105469 Z M 58.244141,15.404297 C 50.136407,18.868295 42.329977,23.1072 35.208984,28.267578 74.573252,49.880926 111.03479,76.872047 142.58789,108.8418 148.54736,103.5572 153.03178,96.715119 155.67773,89.207031 141.60815,76.604456 127.50312,64.038485 112.86719,52.09375 95.543759,38.613956 76.79431,27.113519 58.244141,15.404297 Z M 18.59375,43.640625 c -5.041189,6.395176 -7.95082,14.271968 -8.8359375,22.376953 22.2144225,12.568291 43.3250435,27.08073 63.0058595,43.332032 5.16582,4.10634 11.217783,7.60039 14.83789,13.25781 0.175668,0.34024 0.397031,0.74262 0.638672,1.18164 0.136262,-0.006 0.276004,-0.007 0.41211,-0.0137 10.644191,-0.16503 21.806076,-0.48985 32.160156,-3.32812 C 92.899817,89.287946 56.989287,66.374072 21.324219,44.992188 20.520692,44.560044 19.581328,44.107783 18.59375,43.640625 Z"
       transform="matrix(0.26458333,0,0,0.26458333,-153.00089,103.64136)" />
    <path
       style="fill:#cef7e7;fill-opacity:1;stroke:none;stroke-width:0.265;stroke-linecap:butt;stroke-linejoin:miter;stroke-miterlimit:4;stroke-dasharray:none;stroke-opacity:1"
       d="m -150.25584,125.63485 c 2.98684,5.4401 9.11005,9.03574 15.34361,8.7348 5.33258,0.0588 10.92151,0.49198 15.94695,-1.65602 2.20239,-0.96674 4.22801,-2.45731 5.51549,-4.51878 0.4453,-0.4281 1.72395,-1.75653 1.72395,-1.75653 -1.01875,3.1789 -3.15664,6.0101 -6.1031,7.63247 -2.6715,1.59135 -5.80398,2.11953 -8.87377,2.14395 -5.55793,0.26008 -11.41808,0.49929 -16.58798,-1.90956 -3.58424,-1.54426 -6.23683,-4.82563 -6.96515,-8.67033 z"
       id="path20734"
       sodipodi:nodetypes="ccccccccc" />
  </g>
</svg>
