<?xml version="1.0" encoding="UTF-8" standalone="no"?>
<svg
   id="Layer_2"
   data-name="Layer 2"
   viewBox="0 0 598.64 105.84"
   version="1.1"
   sodipodi:docname="ipl-powered.svg"
   inkscape:version="1.1.2 (0a00cf5339, 2022-02-04, custom)"
   xmlns:inkscape="http://www.inkscape.org/namespaces/inkscape"
   xmlns:sodipodi="http://sodipodi.sourceforge.net/DTD/sodipodi-0.dtd"
   xmlns="http://www.w3.org/2000/svg"
   xmlns:svg="http://www.w3.org/2000/svg">
  <sodipodi:namedview
     id="namedview61"
     pagecolor="#ffffff"
     bordercolor="#666666"
     borderopacity="1.0"
     inkscape:pageshadow="2"
     inkscape:pageopacity="0.0"
     inkscape:pagecheckerboard="0"
     showgrid="false"
     inkscape:zoom="1.8542028"
     inkscape:cx="299.58966"
     inkscape:cy="52.852902"
     inkscape:window-width="2560"
     inkscape:window-height="1369"
     inkscape:window-x="-8"
     inkscape:window-y="-8"
     inkscape:window-maximized="1"
     inkscape:current-layer="Layer_2" />
  <defs
     id="defs4">
    <style
       id="style2">.cls-1,.cls-2{fill:none;stroke:#fff;stroke-miterlimit:10;}.cls-1{stroke-width:4.15px;}.cls-2{stroke-linecap:round;stroke-width:4px;}.cls-3{font-size:41px;fill:#fff;font-family:Roboto-Light, Roboto;font-weight:300;}.cls-4{letter-spacing:-0.01em;}.cls-5{letter-spacing:-0.01em;}.cls-6{letter-spacing:0em;}.cls-7{letter-spacing:-0.01em;}.cls-8{letter-spacing:0em;}.cls-9{font-family:Roboto-Black, Roboto;font-weight:800;}.cls-10{letter-spacing:-0.01em;}.cls-11{letter-spacing:0.01em;}</style>
  </defs>
  <path
     class="cls-1"
     d="M148.94,169.56c20.8,0,37.66-5.44,37.66-12.16a7.11,7.11,0,0,0-3.56-5.63l-25.85-38.55V87.33c1.33-.55,2.13-1.23,2.13-2,0-1.8-4.65-3.26-10.38-3.26H149c-5.73,0-10.38,1.46-10.38,3.26,0,.75.74,1.53,2.08,2.08l.06,25.79L114.9,151.77a7.11,7.11,0,0,0-3.56,5.63c0,6.72,16.86,12.16,37.66,12.16"
     transform="translate(-95.92 -70.52)"
     id="path6"
     style="stroke:#4d6c72;stroke-opacity:1" />
  <path
     class="cls-2"
     d="M128.5,150.5c3.5,1,10.5,3.5,17.5,3.5"
     transform="translate(-95.92 -70.52)"
     id="path8"
     style="stroke:#4d6c72;stroke-opacity:1" />
  <path
     class="cls-2"
     d="M132.5,143a45.29,45.29,0,0,0,14.75,2.75"
     transform="translate(-95.92 -70.52)"
     id="path10"
     style="stroke:#4d6c72;stroke-opacity:1" />
  <path
     class="cls-2"
     d="M136.48,135.3a32.38,32.38,0,0,0,12,1.95"
     transform="translate(-95.92 -70.52)"
     id="path12"
     style="stroke:#4d6c72;stroke-opacity:1" />
  <path
     class="cls-2"
     d="M140,127.5c2,.5,3.5,1.25,10,1.25"
     transform="translate(-95.92 -70.52)"
     id="path14"
     style="stroke:#4d6c72;stroke-opacity:1" />
  <path
     class="cls-1"
     d="M187.38,90a51,51,0,0,1-.85,68.11"
     transform="translate(-95.92 -70.52)"
     id="path16"
     style="stroke:#4d6c72;stroke-opacity:1" />
  <path
     class="cls-1"
     d="M118.09,83a51,51,0,0,1,65.74,3.32"
     transform="translate(-95.92 -70.52)"
     id="path18"
     style="stroke:#4d6c72;stroke-opacity:1" />
  <path
     class="cls-1"
     d="M111.4,158.05a51,51,0,0,1-3.71-64.36"
     transform="translate(-95.92 -70.52)"
     id="path20"
     style="stroke:#4d6c72;stroke-opacity:1" />
  <polyline
     class="cls-1"
     points="37.14 53.08 7.58 18.23 18.89 8.64 44.83 39.23"
     id="polyline22"
     style="stroke:#4d6c72;stroke-opacity:1" />
  <path
     class="cls-1"
     d="M133.06,123.6"
     transform="translate(-95.92 -70.52)"
     id="path24"
     style="stroke:#4d6c72;stroke-opacity:1" />
  <polyline
     class="cls-1"
     points="88.62 90.85 89.96 92.43 78.65 102.02 74.31 96.91"
     id="polyline26"
     style="stroke:#4d6c72;stroke-opacity:1" />
  <path
     class="cls-1"
     d="M124.75,166.7"
     transform="translate(-95.92 -70.52)"
     id="path28"
     style="stroke:#4d6c72;stroke-opacity:1" />
  <polyline
     class="cls-1"
     points="61.85 43.58 83.91 17.5 93.11 13.64 90.59 23.14 66.92 51.13"
     id="polyline30"
     style="stroke:#4d6c72;stroke-opacity:1" />
  <polyline
     class="cls-1"
     points="28.83 96.18 23.14 102.91 16.46 97.27 20.22 92.82"
     id="polyline32"
     style="stroke:#4d6c72;stroke-opacity:1" />
  <text
     class="cls-3"
     transform="translate(121.08 44.46)"
     id="text58"
     style="fill:#4d6c72;fill-opacity:1"><tspan
       class="cls-4"
       id="tspan34"
       style="fill:#4d6c72;fill-opacity:1">P</tspan><tspan
       x="24.98"
       y="0"
       id="tspan36"
       style="fill:#4d6c72;fill-opacity:1">owe</tspan><tspan
       class="cls-5"
       x="100.04"
       y="0"
       id="tspan38"
       style="fill:#4d6c72;fill-opacity:1">r</tspan><tspan
       class="cls-6"
       x="113.45"
       y="0"
       id="tspan40"
       style="fill:#4d6c72;fill-opacity:1">ed </tspan><tspan
       class="cls-7"
       x="167.38"
       y="0"
       id="tspan42"
       style="fill:#4d6c72;fill-opacity:1">b</tspan><tspan
       class="cls-8"
       x="189.88"
       y="0"
       id="tspan44"
       style="fill:#4d6c72;fill-opacity:1">y</tspan><tspan
       class="cls-9"
       id="tspan56"
       style="fill:#4d6c72;fill-opacity:1"><tspan
         x="0"
         y="44"
         id="tspan46"
         style="fill:#4d6c72;fill-opacity:1">Inkling </tspan><tspan
         class="cls-10"
         x="137.37"
         y="44"
         id="tspan48"
         style="fill:#4d6c72;fill-opacity:1">P</tspan><tspan
         class="cls-6"
         x="163.8"
         y="44"
         id="tspan50"
         style="fill:#4d6c72;fill-opacity:1">e</tspan><tspan
         class="cls-11"
         x="186.12"
         y="44"
         id="tspan52"
         style="fill:#4d6c72;fill-opacity:1">r</tspan><tspan
         class="cls-8"
         x="202.06"
         y="44"
         id="tspan54"
         style="fill:#4d6c72;fill-opacity:1">formance Labs</tspan></tspan></text>
</svg>
