<?xml version="1.0" encoding="UTF-8" standalone="no"?>
<!-- Created with Inkscape (http://www.inkscape.org/) -->

<svg
   width="41.015526mm"
   height="37.357449mm"
   viewBox="0 0 41.015525 37.357449"
   version="1.1"
   id="svg5"
   sodipodi:docname="rainmaker.svg"
   inkscape:version="1.1.2 (0a00cf5339, 2022-02-04, custom)"
   xmlns:inkscape="http://www.inkscape.org/namespaces/inkscape"
   xmlns:sodipodi="http://sodipodi.sourceforge.net/DTD/sodipodi-0.dtd"
   xmlns="http://www.w3.org/2000/svg"
   xmlns:svg="http://www.w3.org/2000/svg">
  <sodipodi:namedview
     id="namedview7"
     pagecolor="#000000"
     bordercolor="#666666"
     borderopacity="1.0"
     inkscape:pageshadow="2"
     inkscape:pageopacity="0"
     inkscape:pagecheckerboard="0"
     inkscape:document-units="mm"
     showgrid="false"
     fit-margin-top="0"
     fit-margin-left="0"
     fit-margin-right="0"
     fit-margin-bottom="0"
     inkscape:zoom="5.6568543"
     inkscape:cx="96.78524"
     inkscape:cy="58.336309"
     inkscape:window-width="2560"
     inkscape:window-height="1369"
     inkscape:window-x="-8"
     inkscape:window-y="-8"
     inkscape:window-maximized="1"
     inkscape:current-layer="layer1" />
  <defs
     id="defs2" />
  <g
     inkscape:label="Layer 1"
     id="layer1"
     transform="translate(160.63258,-104.77235)"
     inkscape:groupmode="layer">
    <path
       id="path11730"
       style="display:inline;opacity:1;fill:#cef7e7;fill-opacity:1;stroke:none;stroke-width:0.999999px;stroke-linecap:butt;stroke-linejoin:miter;stroke-opacity:1"
       d="m 126.91797,9.0742188 c -6.5004,-0.1295702 -12.20174,4.1344262 -17.18945,8.0468752 -6.35838,6.224504 -15.131325,2.162522 -22.771489,2.011718 -8.141782,0.185802 -18.084346,8.18666 -13.933593,17.0625 5.1747,9.731604 17.507775,-0.328066 24.78125,6.646485 C 105.74211,48.022622 105.09538,61.608366 95,63.9375 83.706885,65.761916 73.032238,59.185009 61.724609,59.603516 53.29872,65.383358 57.299023,52.058272 54.432138,48.156174 43.547099,51.686102 35.51608,59.280369 25.632812,66.46875 23.575956,65.140013 20.97894,63.053695 18.689377,63.50138 7.8673061,66.405229 14.503509,77.026452 12.414062,86.617188 c -4.2184627,5.048682 -3.1786011,8.706979 1.331479,12.104326 2.909034,2.191316 4.181876,4.589206 4.828678,7.003096 0.0011,0.004 0.0025,0.008 0.0039,0.0117 0.0014,0.004 0.0028,0.008 0.0039,0.0117 1.016232,2.45388 1.609192,5.09927 2.185547,7.75 3.210442,1.66294 6.643584,-1.57368 6.556641,-4.85352 0.303496,-2.25267 0.109582,-5.47743 2.671875,-6.40039 2.925241,-0.74048 1.805657,-0.0957 8.839844,-0.0957 5.127052,0 6.401489,-0.50541 9.146484,1.14844 1.422727,3.07621 1.865742,7.11128 5.152344,8.875 3.048907,1.09751 5.393308,-2.38348 5.523437,-5.07813 0.08277,-1.96123 0.283442,-7.413232 3.347656,-5.20313 1.985273,2.71741 1.624094,6.27731 2.228516,9.4375 0.724611,6.05768 1.966755,12.03293 3.144531,18.01172 0.933959,2.66208 -4.278119,3.70925 -6.447265,1.77735 -3.318046,-3.31805 -4.102992,-2.39598 -6.462891,-0.42578 -2.243112,1.89516 -4.337702,3.38782 -7.005859,1.45312 -1.755326,-1.30484 -3.735357,-4.35469 -6.197266,-2.78906 -2.048693,2.02216 -3.341505,5.53356 -6.865234,5.08984 -0.416266,0.0285 -0.833383,0.0504 -1.25,0.0684 2.700421,4.06614 4.685129,8.57088 6.626953,12.98438 6.86502,5.60027 15.83975,0.90514 23.677734,1.26757 21.474444,2.66722 45.004414,-5.45416 57.822264,-23.43164 6.93374,-7.42473 6.40688,-18.11519 9.30664,-27.236324 5.47699,-6.173631 14.27997,-6.171134 21.76563,-7.720703 7.45032,0.24034 16.86928,-5.741341 10.07422,-13.664062 -7.05184,-5.688076 -14.31464,-11.64997 -23.62891,-13.625 -9.10904,-1.489588 -17.74869,-8.698877 -17.48828,-18.556641 -0.45982,-9.418507 7.10853,-16.704551 15.18164,-20.048828 5.90294,-5.150287 -0.26872,-14.190514 -6.73633,-15.0703126 -0.96151,-0.2117008 -1.90535,-0.3193808 -2.83398,-0.3378906 z M 41.71875,69.472656 c 3.368907,-4.49e-4 6.100059,2.730703 6.099609,6.09961 -6.29e-4,3.368144 -2.731465,6.098105 -6.099609,6.097656 -3.367382,-6.29e-4 -6.097027,-2.730274 -6.097656,-6.097656 -4.5e-4,-3.368145 2.729511,-6.098981 6.097656,-6.09961 z"
       transform="matrix(0.26458333,0,0,0.26458333,-163.21141,102.37223)"
       sodipodi:nodetypes="sccccccccccscsccccsccccccccccccccccccccccssccccc" />
    <circle
       style="fill:#cef7e7;fill-opacity:1;stroke:none;stroke-width:0.298185;stroke-linecap:round;stroke-linejoin:round;stroke-miterlimit:4;stroke-dasharray:none;stroke-opacity:1;paint-order:normal;stop-color:#000000"
       id="path16572"
       cx="-152.18369"
       cy="122.3511"
       r="1.1988933" />
  </g>
</svg>
