<?xml version="1.0" encoding="UTF-8" standalone="no"?>
<svg
   width="63.968323"
   height="63.968323"
   viewBox="0 0 63.968323 63.968323"
   fill="none"
   version="1.1"
   id="svg13"
   sodipodi:docname="ring.svg"
   inkscape:version="1.1.2 (0a00cf5339, 2022-02-04, custom)"
   xmlns:inkscape="http://www.inkscape.org/namespaces/inkscape"
   xmlns:sodipodi="http://sodipodi.sourceforge.net/DTD/sodipodi-0.dtd"
   xmlns="http://www.w3.org/2000/svg"
   xmlns:svg="http://www.w3.org/2000/svg">
  <sodipodi:namedview
     id="namedview15"
     pagecolor="#ffffff"
     bordercolor="#666666"
     borderopacity="1.0"
     inkscape:pageshadow="2"
     inkscape:pageopacity="0.0"
     inkscape:pagecheckerboard="0"
     showgrid="false"
     fit-margin-top="0"
     fit-margin-left="0"
     fit-margin-right="0"
     fit-margin-bottom="0"
     inkscape:zoom="8.4102564"
     inkscape:cx="37.989329"
     inkscape:cy="16.408537"
     inkscape:window-width="2560"
     inkscape:window-height="1369"
     inkscape:window-x="-8"
     inkscape:window-y="-8"
     inkscape:window-maximized="1"
     inkscape:current-layer="svg13" />
  <path
     id="circle2"
     style="color:#000000;fill:#9bb7ab;-inkscape-stroke:none"
     d="M 15.576172 4.5878906 C 9.4348115 8.2526856 4.4656511 13.95239 1.875 21.154297 C -4.0745868 37.693912 4.6146818 56.144164 21.154297 62.09375 C 37.693912 68.043337 56.144164 59.354069 62.09375 42.814453 C 65.237776 34.074183 64.29182 24.801792 60.261719 17.121094 L 37.861328 17.121094 C 45.951546 20.307671 50.004895 29.155494 47.039062 37.400391 C 44.016159 45.803947 34.971916 50.061968 26.568359 47.039062 C 18.164803 44.016157 13.906783 34.971916 16.929688 26.568359 C 18.549736 22.064691 21.902137 18.760891 25.955078 17.121094 L 25.576172 17.121094 A 10 10 0 0 1 15.576172 7.1210938 L 15.576172 4.5878906 z " />
  <path
     id="circle4"
     style="color:#000000;fill:#d3f7e7;stroke-dasharray:17.6, 17.6;-inkscape-stroke:none"
     d="M 12.390625 8.7382812 C 10.655535 10.197142 9.0911025 11.847625 7.7265625 13.654297 C 6.0332896 15.895282 4.6658485 18.359155 3.6542969 20.964844 C 2.7989095 23.166863 2.1931817 25.472664 1.8671875 27.835938 L 14.544922 29.583984 C 14.731101 28.234292 15.082289 26.888936 15.583984 25.597656 L 15.585938 25.597656 C 16.172521 24.086657 16.970168 22.651713 17.939453 21.369141 C 18.72521 20.328786 19.63119 19.372393 20.626953 18.535156 L 12.390625 8.7382812 z M 41.398438 17.121094 C 41.563833 17.225517 41.733257 17.323863 41.894531 17.433594 L 41.896484 17.435547 C 42.710941 17.989465 43.477758 18.610412 44.181641 19.289062 L 46.271484 17.121094 L 41.398438 17.121094 z M 62.308594 29.800781 L 49.544922 30.732422 C 49.640882 32.047238 49.582882 33.383982 49.376953 34.693359 C 49.204206 35.79252 48.925176 36.884692 48.544922 37.941406 L 55.484375 40.4375 L 48.542969 37.943359 C 47.991523 39.478021 47.226275 40.938254 46.285156 42.25 L 46.285156 42.251953 L 46.283203 42.253906 C 45.251642 43.693605 43.985256 44.986616 42.5625 46.052734 C 41.845858 46.589846 41.089254 47.071669 40.306641 47.490234 L 46.34375 58.777344 C 47.706669 58.048413 49.008002 57.216997 50.238281 56.294922 C 52.70754 54.444623 54.884076 52.224673 56.685547 49.710938 L 56.6875 49.708984 C 58.331403 47.417252 59.639684 44.911792 60.587891 42.273438 C 60.587891 42.273438 60.587891 42.271484 60.587891 42.271484 C 61.238874 40.462072 61.721294 38.591694 62.021484 36.681641 C 62.37864 34.410698 62.476451 32.100814 62.308594 29.800781 z M 17.425781 41.875 L 6.8300781 49.054688 C 8.0648431 50.87711 9.4958048 52.562738 11.097656 54.078125 C 13.196624 56.065101 15.570425 57.739441 18.142578 59.050781 C 20.233223 60.116763 22.440514 60.941046 24.71875 61.503906 L 27.789062 49.078125 C 26.464816 48.750957 25.172267 48.268065 23.957031 47.648438 C 22.47817 46.894585 21.099734 45.922253 19.896484 44.783203 L 19.894531 44.78125 C 18.972316 43.908903 18.139925 42.929022 17.425781 41.875 z " />
  <defs
     id="defs11">
    <inkscape:path-effect
       effect="fillet_chamfer"
       id="path-effect955"
       is_visible="true"
       lpeversion="1"
       satellites_param="F,0,0,1,0,10,0,1 @ F,0,0,1,0,10,0,1 @ F,0,0,1,0,10,0,1 @ F,0,0,1,0,10,0,1"
       unit="px"
       method="auto"
       mode="F"
       radius="10"
       chamfer_steps="1"
       flexible="false"
       use_knot_distance="true"
       apply_no_radius="true"
       apply_with_radius="true"
       only_selected="false"
       hide_knots="false" />
    <clipPath
       id="clip0_157_220">
      <rect
         width="63.9958"
         height="63.9958"
         fill="#ffffff"
         transform="rotate(36,12.583464,39.854134)"
         id="rect8"
         x="0"
         y="0" />
    </clipPath>
  </defs>
</svg>
