<?xml version="1.0" encoding="UTF-8" standalone="no"?>
<!-- Created with Inkscape (http://www.inkscape.org/) -->

<svg
   width="20.365395mm"
   height="28.27039mm"
   viewBox="0 0 20.365395 28.27039"
   version="1.1"
   id="svg5"
   sodipodi:docname="unknown.svg"
   inkscape:version="1.1.2 (0a00cf5339, 2022-02-04, custom)"
   xmlns:inkscape="http://www.inkscape.org/namespaces/inkscape"
   xmlns:sodipodi="http://sodipodi.sourceforge.net/DTD/sodipodi-0.dtd"
   xmlns="http://www.w3.org/2000/svg"
   xmlns:svg="http://www.w3.org/2000/svg">
  <sodipodi:namedview
     id="namedview7"
     pagecolor="#000000"
     bordercolor="#666666"
     borderopacity="1.0"
     inkscape:pageshadow="2"
     inkscape:pageopacity="0"
     inkscape:pagecheckerboard="0"
     inkscape:document-units="mm"
     showgrid="false"
     fit-margin-top="1"
     fit-margin-left="1"
     fit-margin-right="1"
     fit-margin-bottom="1"
     inkscape:zoom="2"
     inkscape:cx="98.25"
     inkscape:cy="73"
     inkscape:window-width="2560"
     inkscape:window-height="1369"
     inkscape:window-x="-8"
     inkscape:window-y="-8"
     inkscape:window-maximized="1"
     inkscape:current-layer="layer1" />
  <defs
     id="defs2">
    <inkscape:path-effect
       effect="fillet_chamfer"
       id="path-effect22186"
       is_visible="true"
       lpeversion="1"
       satellites_param="F,0,0,1,0,0,0,1 @ F,0,0,1,0,0,0,1 @ F,0,0,1,0,0,0,1 @ F,0,0,1,0,0,0,1 @ F,0,0,1,0,0,0,1 @ F,0,0,1,0,0,0,1 @ F,0,0,1,0,0,0,1 @ F,0,0,1,0,0,0,1 @ F,0,0,1,0,0,0,1 @ F,0,0,1,0,0,0,1"
       unit="px"
       method="auto"
       mode="F"
       radius="5"
       chamfer_steps="1"
       flexible="false"
       use_knot_distance="true"
       apply_no_radius="true"
       apply_with_radius="true"
       only_selected="false"
       hide_knots="false" />
    <inkscape:path-effect
       effect="fillet_chamfer"
       id="path-effect22085"
       is_visible="true"
       lpeversion="1"
       satellites_param="F,0,0,1,0,0,0,1 @ F,0,0,1,0,0,0,1 @ F,0,0,1,0,0,0,1 @ F,0,0,1,0,0,0,1 @ F,0,0,1,0,0,0,1"
       unit="px"
       method="auto"
       mode="F"
       radius="5"
       chamfer_steps="1"
       flexible="false"
       use_knot_distance="true"
       apply_no_radius="true"
       apply_with_radius="true"
       only_selected="false"
       hide_knots="false" />
  </defs>
  <g
     inkscape:label="Layer 1"
     id="layer1"
     transform="translate(-49.703048,-108.98225)"
     inkscape:groupmode="layer">
    <g
       aria-label="?"
       transform="scale(1.0078261,0.99223465)"
       id="text23893"
       style="font-weight:bold;font-size:36.5186px;line-height:1.25;font-family:Glockenspiel;-inkscape-font-specification:'Glockenspiel Bold';fill:#cef7e7;stroke-width:0.570604">
      <path
         d="m 50.309322,118.43886 0.438223,-5.51431 q 1.31467,-0.69386 2.300672,-1.02252 3.067562,-1.05904 6.354236,-1.05904 3.542305,0 5.989051,1.46074 3.1406,1.86245 3.1406,5.44127 0,3.54231 -2.994526,5.36824 -2.191116,1.05904 -4.382232,2.11808 -0.620816,0.43822 -0.803409,1.49726 -0.03652,0.32867 -0.07304,0.94948 h -4.820455 q -0.03652,-0.4017 -0.03652,-0.69385 0,-1.09556 0.182593,-2.08156 0.219112,-1.02252 0.803409,-1.75289 0.766891,-0.94949 2.556302,-1.60682 3.067563,-1.1686 3.067563,-1.78941 0,-1.02253 -1.497263,-1.42423 -1.460744,-0.4017 -3.870972,-0.4017 -2.483264,0 -5.149122,0.32866 -0.474742,0.0365 -1.205114,0.1826 z m 11.941582,14.97262 q 0,1.86245 -1.168595,2.88497 -1.132077,1.02252 -2.738895,1.02252 -1.716374,0 -2.921488,-1.05904 -1.351188,-1.20511 -1.351188,-3.17712 0,-1.78941 1.132076,-2.77541 1.168596,-1.02252 2.775414,-1.02252 1.716374,0 2.921488,1.02252 1.351188,1.1686 1.351188,3.10408 z"
         id="path906" />
    </g>
  </g>
</svg>
